<?xml version="1.0" encoding="UTF-8" standalone="no"?>
<!-- Created with Inkscape (http://www.inkscape.org/) -->

<svg
   version="1.1"
   id="svg1"
   width="107.34338"
   height="73.93399"
   viewBox="0 0 107.34338 73.933992"
   xmlns="http://www.w3.org/2000/svg"
   xmlns:svg="http://www.w3.org/2000/svg">
  <defs
     id="defs1" />
  <g
     id="g1"
     transform="translate(-756.64254,-294.10742)">
    <g
       id="g222"
       transform="translate(33.93133,-36.59261)">
      <g
         id="g169"
         transform="translate(446.09719,138.05394)">
        <path
           style="fill:#ffffff;fill-opacity:1;stroke:none;stroke-width:2.3;stroke-linecap:round;stroke-dasharray:none;stroke-opacity:1"
           id="path175"
           d="m 504.25414,-171.024 c -1.21193,2.51049 -1.82253,4.29541 1.47034,7.11262 0.92834,0.79424 2.44346,0.006 3.66519,0.008 2.33948,-0.98868 0.005,0.007 2.13037,-0.92309 0.28399,-0.12422 1.16376,-0.33921 0.85493,-0.36582 -0.44758,-0.0386 -1.08338,0.71617 -1.30749,0.32682 -4.01508,-6.97544 -0.31938,-8.54305 -3.10718,-7.25849 0.2672,-0.0231 -0.9712,0.27707 -0.72354,0.22664 1.34873,-0.27466 2.52736,-0.95391 3.79964,1.0503 0.82472,1.29916 0.70081,3.02873 0.67208,4.56729 -0.008,0.43043 -0.51775,0.68795 -0.77663,1.03192 -0.31119,-0.15567 -0.14421,0.20525 -0.25733,0.25221 -0.96384,0.40016 -1.87469,-0.1932 -2.77705,-0.50061 -1.31026,-1.55567 -1.5547,-1.31474 -1.63723,-3.35294 -0.0129,-0.31813 0.13771,-0.62172 0.20656,-0.93258 -2.40542,5.36501 5.18185,8.76678 7.58726,3.40177 v 0 c 0.15523,-0.50352 0.43656,-0.98446 0.4657,-1.51056 0.1397,-2.52237 -0.29972,-2.39869 -1.75594,-4.34788 -0.7426,-0.30295 -1.45167,-0.70674 -2.22782,-0.90884 -0.41213,-0.10732 -0.85301,-0.0367 -1.27763,-0.004 -1.27197,0.0981 -2.45576,0.70766 -3.49882,1.39296 -1.79756,1.98379 -3.07145,2.66155 -0.90333,6.47395 0.59251,1.04186 2.10427,1.2017 3.26147,1.51383 0.92398,0.24922 2.7929,-0.60762 3.66589,-0.96965 3.17253,-1.70422 2.59993,-0.9853 -1.01452,-8.43495 -0.20335,-0.41912 -3.17081,0.99055 -3.5609,1.16719 -0.17059,0.0772 -0.33957,0.15799 -0.50935,0.23698 0.87521,0.1213 2.04504,-0.30214 2.62564,0.36391 1.17183,1.34428 1.3416,3.30471 2.01264,4.95697 0.0455,0.11202 0.0811,-0.22784 0.12482,-0.34057 0.0244,-0.063 0.0637,-0.12265 0.0709,-0.1898 0.004,-0.0334 -0.0395,0.0543 -0.0592,0.0814 2.91708,-5.10489 -4.30233,-9.23027 -7.21941,-4.12538 z"
           transform="translate(-202.06247,379.50809)" />
        <path
           style="fill:#ffffff;fill-opacity:1;stroke:none;stroke-width:2.3;stroke-linecap:round;stroke-dasharray:none;stroke-opacity:1"
           id="path173"
           d="m 297.43232,212.52058 c 0.0666,0.77643 0.42038,2.0687 0.60746,2.77534 0.47969,1.81198 1.08255,3.57074 1.71858,5.33228 0.72083,1.83493 0.37347,0.97087 1.03778,2.59389 2.22886,5.44073 9.92321,2.28864 7.69435,-3.15208 v 0 c -0.59375,-1.44798 -0.28808,-0.6901 -0.9146,-2.2746 -0.89724,-2.46574 -1.7049,-4.96635 -2.14854,-7.55913 -1.61524,-5.65334 -9.61027,-3.36904 -7.99503,2.2843 z" />
        <path
           style="fill:#ffffff;fill-opacity:1;stroke:none;stroke-width:2.3;stroke-linecap:round;stroke-dasharray:none;stroke-opacity:1"
           id="path174"
           d="m 305.35209,209.66619 c -0.008,-0.16915 -0.0158,-0.33828 -0.0227,-0.50746 -0.025,-0.60999 -0.0501,-1.21933 -0.004,-1.82917 0.037,-0.49483 0.0264,-0.49157 0.0635,-0.2655 -0.0332,0.13322 -0.05,0.27162 -0.0995,0.39967 -0.57592,1.48889 -2.15948,1.96892 -3.60892,1.94544 -0.8731,-0.0141 -1.27111,-0.38448 -1.88306,-0.81557 -0.0389,-0.0272 -0.0739,-0.10217 -0.11655,-0.0815 -0.006,0.003 0.15065,0.44843 0.16858,0.53624 0.002,0.008 -0.0193,-0.005 -0.0215,-0.0127 -0.0288,-0.10313 -0.0463,-0.20907 -0.0695,-0.3136 0.52665,-3.85009 -0.21765,-2.77757 6.98245,-3.25405 0.3736,-0.0247 0.43905,0.60709 0.67489,0.8979 0.0302,0.0372 -0.0413,-0.20673 0.0482,-0.1987 0.0727,0.39166 -0.0111,0.76371 -0.17979,1.11997 -0.0461,0.0974 -0.10788,0.18674 -0.16706,0.27681 -0.0319,0.0486 -0.13744,0.0898 -0.10591,0.13869 0.0297,0.046 0.0898,-0.0627 0.13467,-0.0941 0.75878,-0.49464 1.46038,-1.07467 2.04933,-1.76547 0.15931,-0.18686 0.29748,-0.39075 0.44622,-0.58613 0.71206,-1.13841 1.26035,-2.44377 1.30639,-3.80727 0.0126,-0.37418 -0.029,-0.74822 -0.0434,-1.12233 -0.151,-1.11867 -0.45559,-2.13583 -1.12805,-3.07455 -0.51074,-0.71296 -0.90902,-0.92338 -1.57925,-1.39772 -1.0226,-0.59185 -2.17081,-0.84841 -3.32067,-1.05285 -0.72882,-0.15584 -1.4664,-0.25534 -2.2086,-0.31714 -1.12662,-0.0776 -2.25701,-0.0119 -3.37936,0.0935 -0.90536,0.0744 -1.79619,0.24298 -2.68291,0.43376 -0.74209,0.142 -1.4834,0.28896 -2.22123,0.45182 -0.93944,0.20681 -1.84768,0.50835 -2.73956,0.86487 -0.92379,0.4108 -1.80035,0.91081 -2.66048,1.43908 -0.56173,0.33741 -1.08353,0.72907 -1.59542,1.13613 -0.41082,0.35825 -0.6974,0.6605 -1.01643,0.93625 -0.45864,0.36305 -0.86138,0.78132 -1.27096,1.19758 -0.47661,0.46048 -0.82855,1.02594 -1.17107,1.58771 -0.35686,0.55134 -0.58935,1.16618 -0.81045,1.78051 -0.26592,0.76637 -0.4684,1.54889 -0.63404,2.34248 -0.21931,0.9263 -0.25137,1.87903 -0.36343,2.8196 -0.0971,0.7707 -0.14404,1.54623 -0.17361,2.32205 -0.0184,0.54428 -0.0196,1.08892 -0.0199,1.63344 4e-4,0.83587 9.6e-4,1.67175 10e-4,2.50762 -0.0116,0.85157 0.002,1.70112 0.0566,2.55102 0.0417,0.92145 0.19826,1.83059 0.3596,2.73688 0.18584,1.00917 0.54828,1.96641 0.95598,2.90367 0.42746,0.892 0.88187,1.77158 1.37783,2.62741 0.59422,0.9898 1.32738,1.88508 2.08716,2.75055 0.57838,0.67291 1.23313,1.27685 1.88971,1.87231 1.06028,0.87396 2.23126,1.60083 3.38594,2.34119 1.02513,0.67148 2.08511,1.28514 3.13636,1.91402 0.92429,0.58268 1.90894,1.05234 2.90404,1.49824 1.03405,0.47123 2.12811,0.74091 3.24455,0.92435 1.44987,0.19038 2.91389,0.16704 4.36915,0.0675 1.09304,-0.0697 2.16273,-0.28972 3.20425,-0.62142 0.77528,-0.24624 1.49094,-0.63807 2.19636,-1.03615 0.67546,-0.38813 1.31541,-0.83308 1.97116,-1.25298 0.5088,-0.27531 0.95261,-0.68353 1.49674,-0.88959 0.11096,-0.0328 0.70139,-0.0958 0.1754,-0.0237 -0.73232,0.0244 -1.46088,-0.22651 -1.98419,-0.74253 -0.2035,-0.2413 -0.37165,-0.50459 -0.47677,-0.80263 -0.0144,-0.0408 -0.064,-0.30739 -0.0707,-0.19682 1.6e-4,0.0285 2.7e-4,0.057 5e-4,0.0855 8.2e-4,0.10421 0.001,0.41685 0.002,0.31264 8.2e-4,-0.28311 0.005,-0.27596 -0.0289,-0.0635 -0.0452,0.54965 -0.16697,0.95484 -0.28395,1.53272 -0.16339,0.89718 -0.34899,1.78976 -0.53771,2.68188 -0.19554,0.671 -0.29029,1.36234 -0.41215,2.04824 -0.13746,0.76884 -0.25122,1.54138 -0.35785,2.31513 -0.1683,1.15996 -0.30253,2.32415 -0.47015,3.48412 -0.14025,0.76899 -0.32696,1.52908 -0.49428,2.29274 -0.16357,0.82456 -0.34205,1.64539 -0.53221,2.46411 -0.16984,0.83539 -0.38652,1.659 -0.55983,2.49347 -0.12941,0.65027 -0.29258,1.292 -0.46183,1.93275 -0.0993,0.44558 -0.2157,0.88807 -0.36238,1.32056 -0.18397,0.53231 -0.35162,1.0697 -0.50378,1.61246 -0.2691,0.88353 -0.55031,1.84928 -0.32107,2.78273 0.18742,0.76313 0.66821,1.42249 1.00232,2.13374 0.48468,0.37528 0.9328,0.80326 1.45404,1.12584 0.74056,0.4583 1.95718,0.56813 2.83194,0.59727 0.5488,0.007 1.09768,-4e-5 1.6465,-0.003 0.67344,0.019 1.34294,-0.0282 2.01101,-0.10955 0.52802,-0.07 1.05232,-0.16767 1.5775,-0.25659 0.59381,-0.14 1.195,-0.23941 1.79407,-0.3518 0.54451,-0.0929 1.08046,-0.22767 1.62084,-0.34083 0.5811,-0.14219 1.16296,-0.28149 1.74731,-0.4099 0.77961,-0.18806 1.54457,-0.43016 2.31093,-0.66511 0.46882,-0.13646 0.94505,-0.25406 1.42966,-0.31824 0.51284,-0.0536 1.01992,-0.14576 1.53462,-0.18189 0.71274,-0.0259 1.42211,-0.10077 2.13424,-0.13882 0.83008,-0.0409 1.66118,-0.0512 2.49211,-0.0573 0.94636,-0.0143 1.89108,-0.0866 2.83684,-0.12651 0.71325,-0.0316 1.42722,-0.0377 2.14105,-0.041 1.00643,-0.002 2.01286,-0.001 3.01929,-8.6e-4 0.8643,4e-4 1.72859,5.6e-4 2.59288,6.5e-4 0.80425,5e-5 1.60849,5e-5 2.41274,5e-5 0.93978,0 1.87957,-1e-5 2.81935,-1e-5 0.83763,0 1.67526,0 2.51289,0 0.53298,0 1.06597,0 1.59896,0 0.56775,0.0253 1.12943,-0.0675 1.69285,-0.1184 0.35189,-0.0264 0.70455,-0.0396 1.0573,-0.0466 0.18702,-0.003 0.37407,-0.003 0.56111,-0.002 0.84702,0.029 -0.68507,-0.11947 -0.47488,-0.0603 0.65964,0.16512 1.2313,0.23347 1.9616,0.15234 0.37982,-0.0422 0.82669,-0.0444 1.10471,-0.30661 0.95771,-0.90319 1.65312,-2.04915 2.47968,-3.07373 -0.12105,-0.89923 -0.22169,-1.80144 -0.36314,-2.69768 -0.011,-0.0697 -0.0575,-0.12908 -0.0927,-0.19018 -0.12879,-0.22343 -0.25955,-0.4459 -0.39902,-0.66282 -0.22515,-0.35019 -0.50033,-0.67367 -0.76133,-0.99707 -0.36583,-0.45748 -0.66459,-0.96214 -0.96741,-1.46196 -0.1512,-0.28748 -0.32952,-0.56034 -0.48006,-0.84811 -0.0278,-0.0531 -0.0852,-0.25855 -0.0898,-0.27083 -0.12978,-0.30403 -0.16103,-0.61574 -0.2155,-0.92886 -0.095,-0.57404 -0.1363,-1.15486 -0.20271,-1.73274 -0.0984,-0.79814 -0.23549,-1.58942 -0.36997,-2.38185 -0.11934,-0.67687 -0.31841,-1.33445 -0.49246,-1.99792 -0.23125,-0.85416 -0.55015,-1.68037 -0.89192,-2.49537 -0.30463,-0.84256 -0.61177,-1.68378 -0.9356,-2.51923 -0.48776,-1.19513 -1.04859,-2.35741 -1.61421,-3.51701 -0.41396,-0.86424 -0.85276,-1.71966 -1.20628,-2.6111 -0.2004,-0.55632 -0.33145,-1.12948 -0.44926,-1.70712 -0.2115,-0.92911 -0.34157,-1.87365 -0.42032,-2.8225 0.0292,-0.33647 -0.14786,-0.83209 0.008,-1.13718 -0.0716,0.29128 0.16684,-0.61597 0.12588,-0.28907 -0.0156,0.12423 -0.0925,0.2476 -0.15546,0.34988 -0.08,0.20782 -0.37899,0.30396 -0.49101,0.45177 -0.0207,0.0273 0.0686,3.3e-4 0.10272,-0.003 -0.90406,0.20322 -2.01008,-0.0272 -2.70347,-0.6725 -0.11405,-0.10614 -0.2151,-0.22544 -0.32265,-0.33816 -0.0409,0.0193 -0.21772,-0.33923 -0.22123,-0.33693 -0.0466,0.0305 0.0346,0.10595 0.0488,0.15978 0.0312,0.11811 0.0537,0.23837 0.083,0.35696 0.27721,1.11823 0.69497,2.18994 1.17834,3.23306 0.39634,0.88459 0.83979,1.74552 1.33127,2.58064 0.36506,0.64413 0.77679,1.25667 1.2286,1.84268 0.60097,0.78061 1.32151,1.44674 2.07897,2.07119 0.94478,0.73786 1.98797,1.33493 3.05854,1.86823 0.9414,0.45614 1.94007,0.76481 2.95069,1.02282 1.01489,0.24503 2.03915,0.44987 3.07106,0.60819 1.08161,0.15211 2.17222,0.21128 3.26318,0.2344 0.90814,0.0344 1.81308,-0.003 2.71743,-0.0847 0.84457,-0.0759 1.66095,-0.29497 2.46549,-0.55169 0.8137,-0.2566 1.57398,-0.63403 2.29577,-1.08428 0.96052,-0.63543 1.69178,-1.52696 2.35761,-2.45161 0.35357,-0.5217 0.67655,-1.06265 1.03082,-1.58398 0.38193,-0.53851 0.71147,-1.11083 1.06946,-1.66459 0.47316,-0.73127 0.87581,-1.50359 1.28697,-2.27049 0.44002,-0.80595 0.82452,-1.63748 1.2097,-2.47012 0.30666,-0.7267 0.60626,-1.4558 0.87496,-2.19748 0.25631,-0.69361 0.49527,-1.39288 0.71449,-2.0991 0.22825,-0.72294 0.33659,-1.47197 0.38527,-2.2261 0.0203,-0.40761 0.0171,-0.81582 0.0155,-1.22377 -0.034,-1.16523 -0.32491,-2.29792 -0.64651,-3.41152 -0.18428,-0.65458 -0.3862,-1.30419 -0.60013,-1.94965 -0.15323,-0.54722 -0.33319,-1.08668 -0.50595,-1.62801 -0.1694,-0.56577 -0.35982,-1.12478 -0.55222,-1.68306 -0.18611,-0.66587 -0.40794,-1.31947 -0.63183,-1.97319 -0.28483,-0.79618 -0.64865,-1.56067 -1.04043,-2.30862 -0.38067,-0.75839 -0.8435,-1.46918 -1.34106,-2.15482 -0.5405,-0.69482 -1.16731,-1.31485 -1.79191,-1.93278 -0.54135,-0.52145 -1.15033,-0.96446 -1.76571,-1.39313 -0.4782,-0.33926 -0.98512,-0.63209 -1.49139,-0.92626 -0.5832,-0.34694 -1.21563,-0.59522 -1.82512,-0.88793 -0.75922,-0.33997 -1.55064,-0.59107 -2.36216,-0.76849 -0.41534,-0.12518 -0.86906,-0.20158 -1.30711,-0.26122 0.0437,0.005 0.17344,0.026 0.13094,0.0149 -0.41843,-0.10897 -0.86499,-0.13855 -1.28897,-0.22681 -0.65443,-0.13463 -1.31733,-0.21601 -1.97669,-0.31909 -0.68746,-0.10706 -1.37183,-0.22035 -2.0653,-0.28667 -0.85759,-0.0673 -1.71854,-0.0686 -2.57823,-0.0724 -1.06904,0.001 -2.12749,0.15243 -3.18888,0.2573 -0.73291,0.0789 -1.45541,0.22567 -2.18279,0.33998 -0.76472,0.14137 -1.52259,0.29814 -2.27018,0.51408 -0.90666,0.23813 -1.7729,0.60048 -2.64237,0.94526 -0.69413,0.29094 -1.36717,0.62692 -2.05162,0.93972 -0.62038,0.28535 -1.25916,0.52689 -1.88111,0.80933 -0.5814,0.28863 -1.14938,0.60297 -1.72143,0.9095 -0.75052,0.37571 -1.47616,0.79456 -2.17881,1.25271 -0.60065,0.39711 -1.16378,0.84314 -1.71757,1.30235 -0.59512,0.52747 -1.17596,1.08686 -1.57215,1.78632 -0.1394,0.2461 -0.24899,0.50794 -0.37348,0.76191 -0.0798,0.248 -0.20066,0.48638 -0.23947,0.744 -0.0808,0.53635 -0.18418,1.08473 -0.11715,1.62297 0.15922,1.27859 0.62818,2.18921 1.50029,3.09892 0.83096,0.86678 1.3812,0.99438 2.44912,1.48327 1.25797,0.39323 2.5639,0.6465 3.88162,0.71532 0.70252,0.0367 1.10352,0.0119 1.78909,-0.009 1.55779,-0.0869 3.05797,-0.51419 4.51692,-1.04034 0.70777,-0.2628 1.36434,-0.65476 2.07932,-0.89965 0.38617,-0.13227 0.78616,-0.22013 1.17988,-0.32784 1.45827,-0.36027 2.93995,-0.6119 4.41332,-0.90126 1.07593,-0.1869 2.15137,-0.38058 3.23394,-0.52568 0.36835,-0.047 0.73793,-0.0855 1.10865,-0.10789 0.15874,-0.01 0.3086,-0.0378 0.45788,0.0166 -0.053,-0.0412 0.20901,0.0533 0.16552,0.0909 -0.0135,0.0117 -0.0521,-0.0132 -0.0534,0.005 -0.002,0.0233 0.0329,0.0332 0.0494,0.0498 -0.0958,-0.0604 -0.19158,-0.12077 -0.28737,-0.18116 -0.57388,-0.53562 -0.0435,-0.008 -0.53406,-0.59434 -0.0363,-0.0434 -0.0594,0.0636 -0.0775,-0.0522 -0.12249,-0.78501 -0.11014,-0.60849 -0.0245,-1.22879 -0.802,-1.00279 0.7291,-0.86033 0.83534,-1.3905 0.0106,-0.0529 -0.10834,-0.004 -0.16191,0.002 -0.13464,0.0165 -0.26749,0.0453 -0.4014,0.067 -0.81932,0.13251 -0.56974,0.0923 -1.48037,0.21463 -1.97396,0.2445 -3.88787,0.65573 -5.78451,1.24988 -1.15107,0.3562 -2.25556,0.84859 -3.40649,1.20308 -1.02996,0.32214 -2.11366,0.41189 -3.18104,0.53339 -1.32041,0.14516 -2.64485,0.0937 -3.96329,-0.0306 -0.67725,-0.0498 -1.18919,-0.18807 -1.75921,-0.53145 -1.02054,-0.61118 -2.05773,-1.19161 -3.11987,-1.72718 -0.91938,-0.48554 -1.89577,-0.84539 -2.84074,-1.27439 -0.59396,-0.25974 -1.20843,-0.47105 -1.81995,-0.68481 -0.28755,-0.0888 -0.56741,-0.19906 -0.85213,-0.29558 -0.37777,-0.12806 -0.23585,-0.0545 -0.36899,-0.12521 0.0417,0.0142 0.16479,0.0613 0.12497,0.0426 -0.38032,-0.17902 -0.77931,-0.31428 -1.16351,-0.48301 -0.35594,-0.1351 -0.71145,-0.32511 -1.08045,-0.49192 -0.58287,-0.23191 -1.13774,-0.52398 -1.69056,-0.81843 -0.81076,-0.49307 -1.61987,-0.98937 -2.41621,-1.50555 -0.82931,-0.50432 -1.66958,-0.99119 -2.52015,-1.45856 -0.7796,-0.41196 -1.58757,-0.76893 -2.39876,-1.11372 -0.45606,-0.20104 -0.90065,-0.42535 -1.33211,-0.67455 -0.60309,-0.34729 -1.19179,-0.71888 -1.78306,-1.08577 -0.52795,-0.34002 -1.09879,-0.60382 -1.65138,-0.89942 -0.50026,-0.25891 -1.00946,-0.49879 -1.52487,-0.72596 -0.65389,-0.27979 -1.31143,-0.55017 -1.96706,-0.82513 -0.42128,-0.1769 -0.84031,-0.3516 -1.25125,-0.54954 -0.54628,-0.27394 -1.11517,-0.49599 -1.68226,-0.72183 -0.62817,-0.24032 -1.24842,-0.50062 -1.88022,-0.7312 -0.81822,-0.27825 -1.66598,-0.43388 -2.52241,-0.53192 -0.49612,-0.0989 -0.99732,-0.15885 -1.50118,-0.19975 -1.54338,-0.13996 -2.99592,0.39007 -4.38863,0.98253 -1.07612,0.51331 -2.13783,1.05615 -3.20233,1.59298 -0.74031,0.38611 -1.50028,0.72657 -2.23018,1.13317 -1.12659,0.62802 -2.14716,1.42121 -3.14026,2.23885 -0.98062,0.80086 -1.80552,1.75856 -2.56349,2.76663 -0.84489,1.18922 -1.40868,2.53029 -1.87459,3.90358 -0.28881,0.9031 -0.5276,1.82873 -0.6157,2.77563 -0.0691,0.74289 -0.0613,1.25844 -0.069,1.98857 -0.0111,1.75823 0.34724,3.47757 0.81013,5.16362 0.36831,1.33767 0.87476,2.63496 1.45341,3.89454 0.53867,1.07527 1.11136,2.1328 1.72989,3.16414 0.53044,0.80567 1.05588,1.61955 1.68507,2.35359 0.40167,0.46861 0.57164,0.62503 0.99471,1.0507 1.07954,1.08107 2.37381,1.89684 3.66906,2.68951 0.93682,0.57845 1.92587,1.06436 2.91323,1.5489 0.97451,0.52162 2.04571,0.75564 3.12319,0.94758 1.85048,0.36785 3.7123,0.66317 5.58414,0.898 1.4759,0.16544 2.98577,0.1711 4.42414,-0.24873 1.0359,-0.30236 1.17256,-0.4522 2.11858,-0.98475 1.25128,-0.83244 2.26594,-1.93985 2.99748,-3.25231 0.14705,-0.26383 0.268,-0.54137 0.402,-0.81206 0.64994,-1.49144 0.78257,-3.11309 0.39679,-4.69391 -0.23339,-0.95637 -0.42582,-1.25226 -0.83889,-2.12669 -0.83502,-1.52438 -2.02653,-2.81169 -3.38923,-3.88097 -0.26968,-0.21162 -0.5529,-0.40538 -0.82936,-0.60807 -1.51742,-1.06066 -3.25353,-1.68035 -5.08988,-1.88392 -0.41704,-0.0462 -0.83727,-0.0567 -1.2559,-0.085 -2.05505,-0.0465 -4.10358,0.15987 -6.15114,0.30334 -0.0509,-0.008 -0.3308,-0.0451 -0.3805,-0.0722 -0.0978,-0.0533 0.12807,-0.0405 0.12488,-0.0736 -0.004,-0.0399 -0.0513,-0.0615 -0.077,-0.0922 -0.46223,-0.45639 -0.80737,-1.01438 -1.13558,-1.57094 -0.4579,-0.72277 -0.66943,-1.4823 -0.84893,-2.30747 -0.99712,-0.36236 -0.007,-0.53322 0.01,-0.41038 0.0115,0.0856 0.008,0.17327 -0.003,0.25897 -0.0342,0.28219 -0.0936,0.33934 -0.2246,0.60811 -0.0332,0.0563 -0.11443,0.1052 -0.0996,0.16886 0.0102,0.0441 0.0871,-0.0253 0.12907,-0.0422 0.0983,-0.0396 0.19336,-0.0867 0.2913,-0.12713 0.47367,-0.1954 0.95769,-0.36177 1.44186,-0.52871 0.8953,-0.31161 1.82656,-0.43722 2.76331,-0.5431 1.08567,-0.0913 2.16812,-0.21765 3.25571,-0.28514 0.32343,-0.007 0.6476,-0.0399 0.97138,-0.0353 0.0266,3.8e-4 -0.0967,0.0111 -0.0752,0.0267 0.0438,0.0317 0.10367,0.0309 0.1555,0.0463 0.0594,0.0274 0.72041,0.20705 0.70266,0.28741 -0.009,0.0422 -0.0851,-0.0185 -0.12834,-0.0186 -0.0166,-0.003 -0.0332,-0.005 -0.0498,-0.008 -0.0534,-0.0404 -0.0964,-0.10112 -0.16028,-0.12109 -0.0216,-0.007 0.002,0.0677 -0.0204,0.0646 -0.10219,-0.0139 -0.0948,-0.17168 -0.19354,-0.0862 -0.128,-0.29654 0.37914,-0.97446 -0.0454,-0.56743 -0.0856,0.0821 -0.17109,0.16437 -0.25663,0.24655 -0.69855,0.65525 -1.4057,1.30913 -1.9928,2.07 -0.15653,0.20286 -0.29945,0.41587 -0.44918,0.62381 -0.74521,1.11825 -1.26896,2.38045 -1.51837,3.70288 -0.065,0.3448 -0.0982,0.69486 -0.14722,1.04229 -0.11877,1.83356 0.13984,3.70858 0.98091,5.36193 0.16055,0.3156 0.3561,0.61213 0.53415,0.9182 0.88855,1.2414 2.0672,2.24183 3.51054,2.77243 0.25078,0.0922 0.51239,0.1517 0.76858,0.22756 1.28002,0.25075 2.59365,0.15879 3.82992,-0.25536 0.21706,-0.0727 0.42689,-0.16546 0.64034,-0.24818 0.34075,-0.14137 0.66025,-0.32871 0.99562,-0.48135 0.0116,-0.005 0.0448,-0.006 0.0585,-0.006 -0.21025,0.058 -0.4205,0.11602 -0.63075,0.17403 -1.13982,0.0111 -0.88015,0.10612 -1.99479,-0.29471 -0.12431,-0.0447 -0.42686,-0.26754 -0.3669,-0.14983 0.0532,0.1044 0.13143,0.19406 0.19342,0.29347 0.0996,0.15967 0.1941,0.32242 0.29115,0.48363 0.83452,1.37149 1.6119,2.77266 2.34668,4.19943 0.52098,1.05362 1.08519,2.092 1.5029,3.19251 0.30871,1.06715 0.26967,2.19498 0.22217,3.29298 -0.0951,1.43899 -0.16566,2.88076 -0.33852,4.31312 -0.11973,1.02375 -0.41759,2.01297 -0.68747,3.00398 -0.26827,1.29486 -0.86684,2.4561 -1.4679,3.61963 -0.71064,1.35507 -1.31127,2.75607 -1.71365,4.23276 -0.37906,1.74408 -0.4876,3.18675 0.72435,4.84045 0.4634,0.63231 1.26273,0.92935 1.8941,1.39403 0.68358,0.12741 1.35865,0.31487 2.05073,0.38223 0.59414,0.0578 2.55948,-0.11454 3.11087,-0.16576 1.85859,-0.17267 3.71202,-0.40495 5.56458,-0.63135 2.68938,-0.33669 5.38165,-0.65888 8.06467,-1.04339 1.73491,-0.27303 3.47453,-0.50066 5.22473,-0.64709 1.67047,-0.11673 3.34495,-0.15882 5.01896,-0.18214 0.94018,-0.0112 1.88044,-0.009 2.82066,-0.007 0.67498,0.001 1.34997,0.002 2.02495,0.003 2.36086,-0.31228 2.63722,-0.0947 4.3298,-3.94667 0.33667,-0.7662 -0.20565,-1.67102 -0.46102,-2.46801 -0.20757,-0.64779 -1.10697,-1.76403 -1.57444,-2.25292 -0.31488,-0.32931 -0.6719,-0.61556 -1.00785,-0.92333 -1.28523,-1.06862 -2.7715,-1.82691 -4.34763,-2.36327 -0.84519,-0.28761 -1.1964,-0.35075 -2.05862,-0.55708 -2.23107,-0.50403 -4.51249,-0.41559 -6.77761,-0.29175 -2.76021,0.14124 -5.51023,0.42093 -8.26585,0.62686 -1.56509,0.13634 -3.12968,0.27578 -4.69962,0.34029 -0.15521,0.005 -0.31041,0.0102 -0.46563,0.0146 -1.00074,0.029 0.32736,-0.0246 0.36006,0.0491 0.97688,2.20017 1.88524,4.46934 2.33321,6.83457 0.0732,0.38642 -0.97616,0.38727 -0.89261,0.77158 0.0735,0.33794 0.66761,-0.18078 1.00141,-0.27117 4.05051,-0.91719 8.05835,-1.99811 12.03021,-3.20886 2.0878,-0.62305 4.11379,-1.42914 6.17655,-2.12571 1.0859,-0.3183 2.11618,-0.77106 3.10692,-1.3132 1.51898,-0.92057 3.4143,-2.43103 2.79272,-4.6794 -1.01407,-3.66809 -2.41607,-3.54673 -4.72884,-3.88233 -2.66357,-0.0232 -5.27853,0.56077 -7.89769,0.97108 -0.7756,0.0973 -1.55032,0.24948 -2.33496,0.2566 -0.73487,0.007 -1.48343,-0.10485 -2.21174,-0.18135 -2.31947,-0.29145 -4.64957,-0.49074 -6.97962,-0.67552 -0.89748,-0.0866 -1.79974,-0.10225 -2.69889,-0.16024 -0.0758,-0.005 0.15373,-0.0119 0.22768,0.005 0.30042,0.0697 0.5931,0.16938 0.88965,0.25407 2.76872,3.30054 2.70513,1.80735 1.53807,6.1199 -0.0442,0.16323 -0.25599,0.23258 -0.33186,0.38371 -0.0306,0.0609 0.12172,-0.0611 0.18388,-0.0889 0.12618,-0.0564 0.25424,-0.10858 0.38102,-0.16366 0.25066,-0.10891 0.50087,-0.21887 0.7513,-0.3283 2.24642,-0.8982 4.63124,-1.39993 6.9777,-1.96495 2.04583,-0.48577 4.09428,-0.96246 6.12406,-1.51232 1.01845,-0.27477 2.02431,-0.59482 3.02595,-0.92513 0.96557,-0.34886 1.93635,-0.68875 2.87058,-1.1156 0.29214,-2.31034 1.40216,-4.66241 0.87641,-6.93103 -0.22185,-0.95731 -1.79423,-0.81785 -2.73668,-1.09611 -0.396,-0.11692 -0.82378,-0.0595 -1.23631,-0.0769 -1.41909,-0.06 -2.8427,-0.0547 -4.26273,-0.066 -2.26313,-0.0125 -4.5263,-0.008 -6.78945,-0.006 -1.4966,0.0133 -2.99452,-0.004 -4.48801,-0.10722 -0.84622,-0.0775 -1.69204,-0.2089 -2.5038,-0.46651 2.85448,0.73902 2.42597,3.55663 1.98449,5.88111 -0.15233,0.80207 -1.69883,1.24707 -0.67804,0.97833 0.28126,-0.074 0.56108,-0.15347 0.84162,-0.2302 2.69934,-0.61067 5.43047,-1.07646 8.15368,-1.56857 2.09163,-0.41096 4.20128,-0.78997 6.24181,-1.41934 0.35054,-0.10812 0.69521,-0.23443 1.04281,-0.35165 0.92762,-0.34351 1.83056,-0.75604 2.66254,-1.29473 0.25085,-0.16243 0.51605,-0.31239 0.72851,-0.52256 0.43205,-0.4274 1.06306,-0.78485 1.19324,-1.37847 0.31155,-1.42072 0.0439,-2.90862 0.0658,-4.36293 -0.83023,-0.71563 -1.56349,-1.56233 -2.49069,-2.14689 -0.55405,-0.34931 -2.43064,-0.60141 -3.11029,-0.68136 -1.42493,-0.16764 -2.86189,-0.20932 -4.29422,-0.25997 -2.52636,-0.0308 -5.05133,0.0546 -7.57771,0.0299 -1.45282,-0.0479 -2.90619,-0.1128 -4.35122,-0.27537 -1.07862,-0.10087 -2.0366,-0.6284 -2.96516,-1.15131 -0.37655,-0.24239 -0.66904,-0.40954 -1.0044,-0.70171 -0.63356,-0.55197 -1.23979,-1.50662 -1.72624,-2.18217 -0.96797,-1.43086 -1.85279,-2.92546 -2.54947,-4.50773 -0.27829,-0.88538 -0.56021,-1.81135 -0.47107,-2.74899 0.11855,0.44586 -0.28896,1.36244 -0.71718,1.5989 -0.20503,0.11322 -0.42942,0.18717 -0.64412,0.28075 -0.22735,-0.0161 -0.45243,0.12883 -0.68302,0.10119 -0.0797,-0.01 -0.22656,-0.13032 -0.23529,-0.0506 -0.012,0.10997 0.14545,0.16692 0.21297,0.25455 0.0982,0.12747 0.18935,0.26027 0.28403,0.3904 0.84796,1.20092 1.51335,2.51533 2.14653,3.8382 0.54857,1.25854 1.19822,2.45555 2.24027,3.38494 0.34333,0.3062 0.73873,0.54847 1.10809,0.8227 2.43316,1.39405 5.19853,1.84249 7.93927,2.18576 2.18566,0.25258 4.38666,0.30705 6.58449,0.33963 1.46576,0.0318 2.93306,-0.0337 4.39652,0.0674 1.55176,0.0939 3.07562,0.42795 4.60362,0.69628 0.37104,0.0662 0.97021,0.16909 1.3662,0.2517 0.0105,0.002 0.028,0.0254 0.0287,0.0147 0.16354,-2.71675 0.2172,-5.44126 0.46116,-8.15197 0.009,-0.096 0.37061,-0.0443 0.27925,-0.0751 -0.29753,-0.10009 -0.62045,-0.096 -0.93067,-0.14408 -2.53478,-0.37602 -5.04949,-0.89591 -7.52264,-1.56793 -0.72009,-0.19567 -1.43446,-0.41181 -2.1517,-0.61772 -3.04898,-0.90755 -6.09743,-1.83873 -9.07752,-2.95596 -0.355,-0.14143 -0.56032,-0.21894 -0.89126,-0.36354 -0.0709,-0.031 0.17574,0.0217 0.21461,0.0887 0.74192,1.27771 2.3508,2.44552 2.10267,3.90203 -0.0309,0.18121 -2.29124,2.56436 -3.45209,3.78863 1.88576,0.19297 3.75654,0.49945 5.63382,0.75688 2.24492,0.30784 2.98074,0.38448 5.26171,0.65543 4.06129,0.47245 8.12019,0.96617 12.18429,1.41414 0.25715,0.0339 0.5143,0.0678 0.77146,0.1017 0.0187,0.0162 0.0797,0.0565 0.0562,0.0486 -0.29552,-0.0985 -0.67988,-0.0814 -0.8772,-0.32243 -0.76921,-0.93979 -1.57015,-1.9332 -1.92073,-3.09595 -0.21164,-0.70193 0.30106,-1.43525 0.4311,-2.15678 -1.2074,0.8776 -2.59608,1.44703 -3.96107,2.02741 -3.14684,1.33299 -4.46577,2.3423 -2.52976,7.60027 0.5093,1.38321 3.16635,1.22876 4.3786,1.23817 2.43976,-0.14483 4.86865,-0.44733 7.29072,-0.76864 2.20185,-0.29833 4.37801,-0.75277 6.55884,-1.17269 2.1508,-0.40558 4.25119,-1.01655 6.33539,-1.67544 1.61031,-0.49224 3.15371,-1.16888 4.69877,-1.83181 1.25842,-0.54013 2.43295,-1.22639 3.53346,-2.03776 0.85496,-0.67459 1.74387,-1.39881 2.21479,-2.41383 0.18913,-0.40764 0.29434,-0.84921 0.44151,-1.27381 0.0349,-0.28319 0.0954,-0.56439 0.10459,-0.84958 0.045,-1.40032 -0.40389,-2.74812 -1.37833,-3.78334 -0.29858,-0.31721 -0.68243,-0.54163 -1.02365,-0.81244 -0.31658,-0.14951 -0.62456,-0.31876 -0.94974,-0.44851 -1.13772,-0.45399 -2.51024,-0.47929 -3.66752,-0.0886 -0.396,0.13369 -0.75955,0.34905 -1.13933,0.52357 -1.36115,0.86461 -2.31863,2.08741 -2.91312,3.58544 -0.38076,0.95944 -0.44461,1.53229 -0.63166,2.51876 -0.16135,1.47199 -0.16505,2.99834 0.35865,4.40825 0.36618,0.98583 0.58195,1.20297 1.14286,2.01774 0.44373,0.58453 0.99347,1.06316 1.5367,1.5488 0.13419,0.11996 0.31211,0.25709 0.41574,0.40494 0.0282,0.0334 0.061,0.0635 0.0846,0.10033 0.0131,0.0205 -0.0357,-0.0331 -0.0526,-0.0506 -0.0466,-0.0481 -0.0852,-0.0965 -0.11887,-0.15599 -0.19028,-0.3364 -0.15925,-0.35348 -0.30687,-0.82645 -0.14592,0.16304 0.005,-1.02749 -0.0561,-0.95639 -0.14584,0.17004 -0.24984,0.4361 -0.3774,0.63031 -0.39541,0.60869 -0.88323,1.15032 -1.37425,1.68236 -0.41857,0.34039 -0.76309,0.81985 -1.24527,1.07472 -0.0667,0.0346 -0.80981,0.47101 -0.83771,0.37786 -0.051,-0.17021 0.45823,-0.0497 -0.0597,-0.12557 -0.78209,-0.1926 -1.49933,-0.61497 -2.18262,-1.0304 -0.16088,-0.10601 -0.32504,-0.20721 -0.48263,-0.31805 -0.0191,-0.0135 -1.04692,-0.79142 -0.83023,-0.7786 0.28872,0.28133 0.34874,0.6819 0.37971,1.06802 0.007,0.0855 0.0226,0.17492 -10e-4,0.25741 -0.0851,0.29733 -0.21458,0.58015 -0.32187,0.87022 -0.0134,0.0554 -0.077,0.12264 -0.0401,0.16612 0.0369,0.0436 0.11388,-0.008 0.17085,-0.0117 0.26557,-0.0169 0.61953,-0.0569 0.81162,0.16115 -0.32278,0.2084 -0.73553,-0.21177 -0.83657,-0.49289 -0.0987,-0.27451 -0.13875,-0.56667 -0.20813,-0.85 0.0542,-0.39648 0.0521,-0.80486 0.16266,-1.18944 0.13487,-0.46899 0.6361,-1.19585 1.1352,-1.40635 0.0895,-0.0377 0.18539,-0.058 0.27808,-0.087 0.40022,-0.0701 0.92653,0.0191 1.25002,0.2618 1.18743,0.89079 1.70181,1.48059 1.77192,3.03645 0.0216,0.47927 -0.22408,0.93298 -0.33612,1.39947 -0.0382,0.0813 -0.0764,0.16266 -0.11459,0.244 4.15505,-4.15992 -1.72797,-10.03603 -5.88301,-5.87612 v 0 c -0.32707,0.37055 -0.65415,0.74111 -0.98122,1.11166 -0.32208,0.79075 -0.87119,1.52374 -0.96624,2.37226 -0.24278,2.16743 0.5216,3.38668 2.07235,4.74452 0.58728,0.51423 1.76389,0.83874 2.54226,0.95012 0.35602,0.051 0.71821,0.0397 1.07731,0.0595 0.41897,-0.046 0.84361,-0.0553 1.2569,-0.13795 1.8161,-0.36344 3.71988,-1.57331 4.5017,-3.30954 0.2915,-0.64734 0.36463,-1.37228 0.54694,-2.05842 -0.0649,-0.60803 -0.0555,-1.22865 -0.19465,-1.82409 -0.44241,-1.8932 -2.10417,-3.64872 -3.80205,-4.49967 -0.4822,-0.24168 -1.00836,-0.38328 -1.51254,-0.57491 -0.52965,-0.0909 -1.05338,-0.22837 -1.58894,-0.27286 -2.14936,-0.17851 -4.44866,0.39684 -6.21399,1.65203 -0.47484,0.33763 -0.87933,0.76462 -1.319,1.14692 -0.39781,0.64297 -0.87118,1.24494 -1.19345,1.92891 -0.1902,0.40368 -0.2654,0.8562 -0.32705,1.29816 -0.2282,1.63616 0.17055,3.18403 1.03057,4.57193 0.1848,0.25252 0.35637,0.51527 0.55441,0.75756 0.93388,1.14257 2.15346,2.01377 3.39151,2.79417 0.31482,0.18228 0.62408,0.37451 0.94444,0.54684 1.73013,0.93066 3.6023,1.58849 5.58306,1.63272 1.21694,-0.0496 1.38498,0.003 2.64457,-0.3276 1.03124,-0.27086 1.95887,-0.84714 2.85634,-1.39942 0.94898,-0.67976 1.83211,-1.44404 2.63964,-2.28872 0.83826,-0.91537 1.65066,-1.86104 2.31135,-2.9157 0.7555,-1.23842 1.46427,-2.5496 1.61013,-4.02325 0.0408,-0.41233 -0.006,-0.82867 -0.009,-1.243 -0.088,-0.38204 -0.15033,-0.77094 -0.26408,-1.14613 -0.27595,-0.91015 -0.88226,-1.69904 -1.49856,-2.40202 -0.3322,-0.34559 -0.6687,-0.67589 -1.02689,-0.99459 -0.10035,-0.0893 -0.19147,-0.19283 -0.30765,-0.26024 -0.008,-0.005 -0.0101,0.0153 -0.0152,0.023 0.0165,0.0898 0.16474,0.53085 0.10004,0.59863 -0.0393,0.0412 -0.0318,-0.1095 -0.0432,-0.16532 -0.043,-0.21197 -0.0326,-0.24434 -0.0397,-0.47975 0.0174,-0.1376 0.0363,-0.27502 0.0522,-0.41281 0.009,-0.078 0.0485,-0.1605 0.0223,-0.23455 -7.4e-4,-0.002 -0.62719,0.37483 -0.63075,0.3614 -0.19317,0.069 -0.38033,0.15801 -0.5795,0.2071 -0.78033,0.19234 -1.51681,0.0367 -2.18004,-0.3919 -0.2186,-0.19376 -0.46794,-0.35759 -0.6558,-0.58127 -0.68421,-0.81464 -0.97555,-1.7891 -0.73899,-2.81929 0.11575,-0.28338 0.20594,-0.57859 0.34725,-0.85013 0.0904,-0.17363 0.22083,-0.3237 0.34313,-0.47653 0.0511,-0.0639 0.11473,-0.1168 0.17551,-0.17156 0.005,-0.004 0.0227,-0.007 0.0182,-0.003 -0.0768,0.0708 -0.32188,0.26919 -0.39784,0.33133 -0.56619,0.43465 -1.18458,0.77198 -1.83877,1.05994 -1.29256,0.55488 -2.57989,1.13178 -3.92685,1.54491 -1.77728,0.56236 -3.56546,1.09377 -5.40034,1.4384 -2.02281,0.38958 -4.04088,0.81353 -6.08242,1.09521 -2.10899,0.28112 -4.22358,0.5384 -6.34554,0.69746 -1.27323,0.17447 1.31788,-0.2443 1.60219,1.14677 0.40743,1.99347 -0.1202,4.07856 -0.4376,6.08832 -0.022,0.13941 -1.09858,0.54801 -0.27894,0.17882 0.22259,-0.10026 0.44885,-0.19217 0.67328,-0.28825 2.2342,-0.95223 4.46888,-1.96314 6.33247,-3.55752 1.07209,-1.12436 2.52603,-2.28272 2.25261,-4.18006 -0.52571,-3.64796 -2.54778,-4.43792 -5.43099,-4.78043 -4.04107,-0.4453 -8.0769,-0.93666 -12.11519,-1.40623 -2.13368,-0.253 -2.95096,-0.33963 -5.04891,-0.62739 -2.10847,-0.2892 -4.20993,-0.63702 -6.33089,-0.82809 -2.36466,-0.0429 -4.29339,-0.37638 -5.32628,3.77944 -0.76807,3.09034 2.05147,4.14681 3.94819,4.89463 3.18711,1.18604 6.43755,2.19881 9.69836,3.16035 0.79813,0.22773 1.59309,0.46689 2.39439,0.68321 2.73022,0.73704 5.50511,1.30907 8.30175,1.7264 0.32534,0.0499 2.68201,0.44293 2.732,0.27604 2.4779,-8.27178 2.8508,-7.84432 -1.23275,-8.579 -1.82918,-0.32118 -3.65489,-0.7045 -5.51377,-0.80481 -1.59983,-0.0962 -3.20042,-0.0707 -4.80252,-0.0833 -1.89617,-0.0275 -3.79543,-0.067 -5.68191,-0.27717 -0.90742,-0.11146 -1.81251,-0.21331 -2.70612,-0.41238 -1.57756,-0.35145 -0.0812,-0.041 -1.40003,-0.38279 -0.0636,-0.0165 -0.1304,-0.016 -0.19559,-0.024 -0.0241,0.15303 -0.0135,0.002 0.0935,0.26764 0.0106,0.0264 0.0276,0.10822 0.0117,0.0846 -0.26316,-0.38923 -0.38121,-0.87034 -0.61897,-1.27205 -0.91219,-1.89716 -1.89329,-3.77165 -3.16696,-5.45616 -0.62898,-0.754 -1.05404,-1.34284 -1.82513,-1.95944 -1.14329,-0.91423 -2.38039,-1.56354 -3.85246,-1.72787 -0.49697,-0.0555 -0.99989,-0.0213 -1.49983,-0.0319 -0.59139,0.14491 -1.20268,0.22462 -1.77416,0.43472 -0.43372,0.15946 -0.83625,0.40223 -1.21651,0.6648 -1.39603,0.96396 -2.21523,2.18419 -2.66136,3.81451 -0.10729,0.39204 -0.1171,0.80444 -0.17564,1.20666 -0.004,0.32854 -0.0222,0.65722 -0.0119,0.98562 0.0587,1.85972 0.54469,3.6851 1.211,5.41204 0.95089,2.08736 2.08199,4.08991 3.39639,5.97169 0.52069,0.71696 1.00624,1.41262 1.58258,2.08916 1.1051,1.29722 2.40674,2.38605 3.89663,3.21678 0.35534,0.19097 0.70502,0.39288 1.06602,0.57291 1.56706,0.78151 3.23215,1.37247 4.98236,1.54779 1.71989,0.18463 3.44732,0.28 5.17643,0.32436 2.4569,0.0231 4.91228,-0.0489 7.36912,-0.0345 1.03857,0.0352 1.42423,0.0392 2.44103,0.1075 0.3448,0.0232 0.68928,0.0513 1.03337,0.0833 0.23879,0.0222 0.47529,0.0815 0.7151,0.0792 0.0299,-2.9e-4 0.0163,-0.0575 0.0245,-0.0863 -0.48683,-0.55746 -0.97365,-1.11491 -1.46048,-1.67237 0.11308,-1.27289 0.024,-2.58027 0.33922,-3.81869 0.097,-0.38097 0.56042,-0.55147 0.84276,-0.82501 0.0247,-0.0239 -0.0431,0.0543 -0.0697,0.0761 -0.30219,0.24667 -0.68079,0.3759 -1.03298,0.52905 -1.96315,0.69481 -4.02446,1.05398 -6.06288,1.45277 -2.99319,0.54102 -5.99788,1.04552 -8.95645,1.75516 -0.58762,0.17192 -2.21493,0.6045 -2.74153,0.93506 -0.70576,0.44302 -1.67784,0.76881 -1.95867,1.55335 -0.53137,1.48448 -0.68003,3.19436 -0.2874,4.72141 0.32946,1.28139 1.75707,1.72978 2.7972,2.14037 1.39905,0.39437 2.82578,0.68107 4.27876,0.77972 1.6802,0.10766 3.36392,0.14565 5.0475,0.12535 2.23777,-0.003 4.47557,-0.007 6.71333,0.005 1.30099,0.0102 2.60141,0.024 3.90209,0.0553 0.19001,0.005 0.71718,0.13601 0.56998,0.0158 -0.51086,-0.4173 -1.67372,-0.30524 -1.72902,-0.96255 -0.19096,-2.26987 0.72025,-4.49848 1.08037,-6.74772 0.13008,-0.0118 0.0622,-0.009 -0.24814,0.10844 -0.42027,0.15865 -0.8402,0.3206 -1.26177,0.47581 -0.12231,0.045 -0.24563,0.0873 -0.36845,0.13093 -0.85914,0.28472 -1.72233,0.55966 -2.59615,0.79584 -1.95184,0.5318 -3.92466,0.98191 -5.89176,1.45281 -2.82965,0.68179 -5.69829,1.30828 -8.3892,2.44226 -1.02875,0.45763 -2.1206,0.88982 -3.01745,1.58917 -0.35287,0.27516 -0.82469,0.48407 -0.99974,0.89588 -1.8373,4.3223 -1.29977,3.40487 1.30911,6.72043 0.41197,0.13908 0.8146,0.30971 1.2359,0.41723 0.41593,0.10614 0.81359,0.10636 1.23141,0.12644 0.4155,0.02 0.77808,0.0399 1.19713,0.0676 0.26836,0.0178 0.53656,0.0379 0.80484,0.0569 2.26569,0.17924 4.53121,0.37389 6.7865,0.65796 0.85935,0.0867 1.52346,0.16761 2.38826,0.19905 1.44309,0.0525 2.87368,-0.10002 4.29654,-0.33119 1.97626,-0.31031 3.94274,-0.69106 5.9336,-0.89815 -1.43865,-0.6463 -2.36237,-1.01185 -2.87038,-3.59017 -0.22758,-1.15501 0.81416,-2.21046 1.28158,-3.2909 0.003,-0.007 0.47315,-0.332 0.15643,-0.10987 -0.5449,0.31873 -1.13298,0.52478 -1.73767,0.70546 -1.97811,0.67518 -3.9273,1.43569 -5.92766,2.04549 -3.91969,1.19654 -7.87878,2.24586 -11.87354,3.16274 -0.65522,0.19114 -3.816,0.97829 -3.82822,1.73062 -0.10851,6.67937 0.43773,7.30877 4.10764,7.1777 1.66124,-0.0701 3.31762,-0.20799 4.97356,-0.35625 2.70311,-0.2025 5.40077,-0.47593 8.10825,-0.61657 1.47815,-0.0843 2.9697,-0.20065 4.43411,0.0892 0.992,0.21732 2.00117,0.46942 2.82626,1.09141 0.0826,0.0567 0.16523,0.1134 0.24781,0.17016 0.0466,0.032 0.0953,0.13111 0.13978,0.0962 0.0487,-0.0382 -0.0236,-0.1217 -0.0286,-0.18336 -0.0439,-0.54574 -0.40257,-1.17058 -0.11793,-1.63828 2.09982,-3.45017 1.83977,-3.25424 3.94014,-3.4393 -0.6734,-5.7e-4 -1.3468,-0.001 -2.0202,-0.003 -0.98307,-0.001 -1.96618,-0.004 -2.94921,0.008 -1.87036,0.0265 -3.74128,0.0754 -5.60734,0.21127 -1.91041,0.16483 -3.81152,0.40174 -5.7055,0.70214 -2.62354,0.38047 -5.2582,0.68678 -7.88808,1.01988 -1.7433,0.21334 -3.4871,0.42847 -5.23541,0.59772 -0.4197,0.0406 -0.84014,0.0733 -1.26043,0.10725 -0.21601,0.0175 -0.71822,-0.15812 -0.64842,0.047 0.0885,0.26007 0.51133,0.201 0.767,0.3015 0.45516,0.3874 1.04938,0.65492 1.36547,1.1622 0.40944,0.65708 0.52265,1.45888 0.73219,2.20419 0.0976,0.34714 -0.063,0.453 -0.0136,0.12646 0.20632,-0.9 0.6737,-1.70881 1.06336,-2.53749 0.86363,-1.6804 1.67708,-3.38929 2.09893,-5.24291 0.37839,-1.38992 0.7652,-2.78296 0.92292,-4.21967 0.1904,-1.65539 0.29364,-3.3185 0.38973,-4.98171 0.0706,-2.23515 0.003,-4.49688 -0.78684,-6.619 -0.53947,-1.36044 -1.18666,-2.67305 -1.85574,-3.97411 -0.8425,-1.63547 -1.73683,-3.24067 -2.69549,-4.81146 -0.79295,-1.23868 -1.78054,-2.76158 -3.1186,-3.47407 -1.43322,-0.76317 -1.53121,-0.61284 -3.04753,-0.69364 -0.37261,0.0777 -0.74915,0.13847 -1.11784,0.23304 -0.53302,0.13673 -1.03438,0.42012 -1.52145,0.66748 0.2782,-0.0614 0.42881,0.0536 0.79751,0.11359 0.33015,0.13767 0.57974,0.27867 0.70537,0.62739 -0.002,0.0203 0.0111,0.0727 -0.006,0.061 -0.0381,-0.0267 -0.0502,-0.0784 -0.0752,-0.11762 -0.15045,-0.23603 -0.18853,-0.51624 -0.21628,-0.79076 0.0108,-0.34834 0.0552,-0.70576 0.2418,-1.00591 0.31561,-0.60477 0.97299,-0.97322 1.40952,-1.47543 1.54076,-1.50958 2.5065,-2.7829 2.79635,-5.02654 0.0418,-1.00912 0.11397,-1.42987 -0.0881,-2.46116 -0.33013,-1.68449 -1.15092,-3.19372 -2.41583,-4.35413 -0.24522,-0.19461 -0.47925,-0.40421 -0.73566,-0.58382 -0.9948,-0.69682 -2.14319,-1.1204 -3.30914,-1.42832 -0.69527,-0.15291 -0.83066,-0.20396 -1.57589,-0.2705 -0.63133,-0.0564 -1.26674,0.0136 -1.89768,0.031 -1.23138,0.0798 -2.45797,0.21292 -3.68679,0.32385 -1.53721,0.18181 -3.06428,0.43335 -4.53095,0.94739 -1.9373,0.6758 -3.86282,1.432 -5.32111,2.94049 -0.28424,0.37675 -0.60722,0.72717 -0.85273,1.13023 -1.04772,1.71998 -1.17304,3.78742 -0.75025,5.71255 0.17627,0.74988 0.23611,1.07422 0.48352,1.82278 0.33972,1.02785 0.81469,1.99802 1.35633,2.93309 0.875,1.42808 1.85084,2.80014 3.17442,3.8531 0.75706,0.55394 0.95746,0.75418 1.82543,1.16334 1.30485,0.61512 2.73338,0.82492 4.16455,0.78299 1.6982,-0.11925 3.396,-0.28497 5.09941,-0.29625 0.70536,0.0229 1.37829,0.002 1.97509,0.42803 0.60798,0.40967 1.20277,0.88181 1.6376,1.47788 0.095,0.11333 0.11224,0.14581 0.15325,-0.007 0.009,-0.0319 0.10899,-0.61282 0.19504,-0.47966 -0.0811,0.21952 -0.12383,0.43352 -0.31582,0.58665 0.0894,-0.025 0.26222,-0.0913 0.29252,-0.0454 0.0257,0.039 -0.15779,0.0891 -0.2613,0.10003 -0.41045,0.0431 -0.6798,-0.004 -1.11298,-0.0366 -1.73155,-0.21457 -3.45206,-0.49458 -5.16349,-0.83456 -0.67721,-0.11898 -0.33985,0.022 -0.9106,-0.22491 -0.75685,-0.37124 -1.51908,-0.73653 -2.2383,-1.17802 -0.73903,-0.45138 -1.50322,-0.88487 -2.13555,-1.48366 -0.56781,-0.55653 -1.01366,-1.13035 -1.43257,-1.81384 -0.47553,-0.77953 -0.89796,-1.58861 -1.32029,-2.39791 -0.40727,-0.82348 -0.70755,-1.70486 -0.96828,-2.58387 -0.26407,-0.93958 -0.50328,-1.89408 -0.50832,-2.87669 0.003,-0.75551 -0.0258,-1.49205 0.26075,-2.20847 0.17143,-0.54084 0.37607,-1.06815 0.65571,-1.56315 0.353,-0.48565 0.73635,-0.95033 1.20355,-1.33189 0.61695,-0.52016 1.25562,-1.02372 1.96055,-1.42039 0.57097,-0.37939 1.26551,-0.55145 1.84201,-0.92434 0.92071,-0.46431 1.84158,-0.92829 2.76461,-1.38796 0.40413,-0.18236 0.19974,-0.0965 0.61317,-0.25744 0.0172,-0.008 0.0578,-0.0251 0.0429,-0.0366 -0.0276,-0.0212 -0.0692,-0.007 -0.10384,-0.0103 -0.0709,-0.006 -0.14326,-0.003 -0.21268,-0.0186 -0.0497,-0.0112 0.10186,0.003 0.15279,0.005 0.39843,-0.006 0.78895,0.16648 1.18739,0.17144 0.2378,0.0224 0.44277,0.0726 0.67625,0.12106 0.0188,0.004 -0.0344,-0.0173 -0.0515,-0.026 0.54682,0.18184 1.06774,0.43874 1.61151,0.62979 0.38774,0.15377 0.77386,0.29445 1.14569,0.48642 0.54917,0.2642 1.10822,0.5003 1.66947,0.73687 0.61175,0.24849 1.21769,0.51212 1.82747,0.76567 0.33215,0.14223 0.65746,0.29891 0.97895,0.46345 0.38361,0.20053 0.77646,0.38544 1.14631,0.61047 0.67911,0.42021 1.35437,0.84728 2.04812,1.24325 0.71901,0.40617 1.45329,0.78436 2.21306,1.10933 0.56166,0.23399 1.1182,0.48449 1.66124,0.75873 0.66998,0.35591 1.31657,0.75585 1.97406,1.13416 0.99541,0.64301 2.00186,1.27062 3.02714,1.86483 0.7116,0.3783 1.42757,0.75107 2.17445,1.05609 0.46423,0.20932 0.91522,0.44867 1.3935,0.62563 0.43017,0.17025 0.8626,0.347 1.29246,0.53798 0.46526,0.16484 0.93252,0.32407 1.39966,0.48377 0.36826,0.10286 0.72326,0.26482 1.07853,0.39242 0.84234,0.37813 1.70776,0.70413 2.53004,1.12648 0.99602,0.49594 1.95257,1.06227 2.91453,1.62056 0.7411,0.38468 0.85799,0.47332 1.64055,0.76789 1.05628,0.39761 2.17254,0.59951 3.29104,0.71802 1.88683,0.1703 3.78369,0.22438 5.6709,0.0115 1.601,-0.18432 3.21406,-0.36577 4.75295,-0.86984 1.1443,-0.36971 2.261,-0.81468 3.39981,-1.20096 1.43283,-0.46182 2.90548,-0.75018 4.39929,-0.93816 1.59746,-0.22131 3.29725,-0.41101 4.75923,-1.14787 0.52312,-0.26366 1.06956,-0.52146 1.49445,-0.92476 0.60311,-0.57246 1.02937,-1.30623 1.54406,-1.95934 0.147,-0.463 0.36406,-0.90936 0.441,-1.389 0.28039,-1.74792 -0.0887,-3.47499 -1.05718,-4.95294 -0.22497,-0.34333 -0.52042,-0.6349 -0.78063,-0.95236 -0.2875,-0.23986 -0.56201,-0.49623 -0.86251,-0.7196 -1.11985,-0.83243 -2.50341,-1.25866 -3.86775,-1.44832 -0.24573,-0.0198 -0.49089,-0.0488 -0.73719,-0.0595 -0.92759,-0.0402 -1.8541,0.0808 -2.77332,0.18498 -1.24492,0.17031 -2.48326,0.38554 -3.72008,0.60634 -1.68073,0.33059 -3.37178,0.61644 -5.03088,1.04732 -1.33333,0.37307 -2.65995,0.78183 -3.88997,1.42971 -0.63153,0.23585 -1.27762,0.44743 -1.94755,0.54078 -0.85712,0.0347 -1.60831,0.0188 -2.4544,-0.17661 0.27075,0.19931 0.47689,0.32681 0.68824,0.61542 0.74064,1.01139 0.95122,2.26404 0.45204,3.43388 -0.16881,0.30074 -0.18122,0.36322 -0.3783,0.59758 -0.0494,0.0588 -0.10416,0.11295 -0.15868,0.16703 -0.0188,0.0186 -0.0801,0.069 -0.0609,0.0508 0.21357,-0.20266 0.31355,-0.25828 0.18678,-0.18341 0.35739,-0.29691 0.67906,-0.5691 1.08299,-0.82498 -0.14231,-0.005 -0.02,0.003 0.29741,-0.18353 0.37211,-0.21844 0.75275,-0.42021 1.13648,-0.61781 0.41765,-0.22425 0.83583,-0.44793 1.25119,-0.67605 0.61772,-0.28718 1.26409,-0.50876 1.8769,-0.8074 0.55638,-0.25427 1.10598,-0.52152 1.66281,-0.77385 0.63355,-0.25164 1.26116,-0.52911 1.92354,-0.69736 0.40983,-0.12631 0.82979,-0.19094 1.2486,-0.28209 0.56011,-0.0919 1.11743,-0.19844 1.68016,-0.27437 0.77576,-0.0778 1.54853,-0.18999 2.32846,-0.21641 0.61962,0.003 1.23997,0.002 1.85872,0.0381 0.51908,0.042 1.02664,0.15309 1.54233,0.22219 0.54921,0.0849 1.10071,0.15355 1.64621,0.2608 0.58256,0.11218 1.16771,0.20636 1.75231,0.30688 -0.2928,-0.0626 0.82739,0.13917 0.65623,0.15483 0.12447,-0.0325 0.3999,0.14762 0.5629,0.18072 0.37888,0.17101 0.76125,0.33173 1.12871,0.52803 0.32864,0.18937 0.65987,0.37256 0.96716,0.59659 0.21534,0.12213 0.39835,0.30083 0.60432,0.43607 0.32996,0.32621 0.65899,0.65346 0.97476,0.99355 0.31402,0.34893 0.49426,0.80972 0.73053,1.20926 -0.0457,-0.18295 -0.018,-0.0579 0.14313,0.29321 0.0845,0.18417 0.17495,0.36535 0.25286,0.55254 0.0205,0.0493 0.0395,0.0993 0.0592,0.14888 0.22603,0.65152 0.43292,1.30813 0.63051,1.96937 0.1729,0.50162 0.34473,1.00354 0.49546,1.51237 0.18514,0.57318 0.36916,1.14626 0.53756,1.72458 0.18246,0.5377 0.34404,1.08254 0.49997,1.62842 0.0874,0.30029 0.17745,0.59567 0.24454,0.90126 0.0167,0.0762 0.0313,0.15278 0.0468,0.2292 0.007,0.0366 -0.0152,0.11223 0.022,0.1097 0.0371,-0.003 0.003,-0.0744 0.005,-0.11152 8.9e-4,0.23813 0.003,0.4763 -0.002,0.71441 -7.4e-4,0.0892 0.0122,0.16661 -0.0302,0.25519 -0.18046,0.59291 -0.3883,1.17603 -0.60122,1.75796 -0.17541,0.51324 -0.40144,1.00589 -0.59577,1.51191 -0.3122,0.68092 -0.62213,1.36056 -0.98444,2.01739 -0.31432,0.58642 -0.61442,1.18114 -0.97678,1.73991 -0.31052,0.49285 -0.60662,0.99438 -0.94259,1.4709 -0.30806,0.45803 -0.60889,0.92077 -0.89693,1.3916 -0.0595,0.0835 -0.11229,0.17179 -0.17447,0.25332 -0.23459,0.30761 -0.11077,0.12703 0.042,0.0723 0.28743,-0.12298 -0.22496,0.12281 -0.29109,0.13395 -0.28522,0.091 -0.4176,0.15313 -0.68565,0.19188 -0.60051,0.0544 -1.19821,0.0838 -1.80218,0.0527 -0.73443,-0.0137 -1.46862,-0.0485 -2.19764,-0.14415 -0.76992,-0.11089 -1.53108,-0.27541 -2.28822,-0.45207 -0.44575,-0.10574 -0.88479,-0.23316 -1.30388,-0.42074 -0.50107,-0.23692 -0.97813,-0.52083 -1.44029,-0.82608 -0.29033,-0.2378 -0.58395,-0.46583 -0.8101,-0.77095 -0.25308,-0.30817 -0.44474,-0.65846 -0.64934,-0.99993 -0.38038,-0.58695 -0.64017,-1.24444 -0.94966,-1.86874 -0.26908,-0.52996 -0.46106,-1.09421 -0.61847,-1.66671 -0.26904,-1.08213 -0.59708,-2.15427 -1.25827,-3.07155 -0.40418,-0.48659 -0.67665,-0.89109 -1.19267,-1.2539 -1.36968,-0.96301 -2.58797,-1.25582 -4.24622,-0.97264 -1.61269,0.36876 -2.97959,0.95178 -4.12226,2.20052 -0.16911,0.20726 -0.34864,0.40644 -0.50734,0.62177 -0.68901,0.93489 -1.09861,2.03353 -1.36131,3.15548 -0.0422,0.23121 -0.0937,0.46092 -0.12649,0.69365 -0.13103,0.92941 -0.085,1.86667 -0.0153,2.79881 0.11156,1.26826 0.27966,2.53194 0.55822,3.77543 0.22044,1.07629 0.49329,2.14139 0.89081,3.16792 0.43646,1.06284 0.92988,2.10068 1.43822,3.13094 0.46402,0.95086 0.92738,1.90204 1.33525,2.87869 0.3535,0.91011 0.67499,1.8316 1.026,2.74256 0.19771,0.46466 0.38587,0.93479 0.52316,1.42137 0.11287,0.4154 0.2364,0.82808 0.32786,1.24879 0.11085,0.64018 0.22386,1.27863 0.30434,1.92375 0.0847,0.73677 0.13813,1.47757 0.27133,2.20809 0.14489,0.83289 0.33559,1.65224 0.63056,2.44637 0.33193,0.86903 0.74842,1.69331 1.2357,2.48584 0.49976,0.82445 1.0129,1.64342 1.62253,2.39268 0.15317,0.18666 0.11087,0.13279 0.25262,0.31407 0.023,0.0294 0.0836,0.12277 0.0686,0.0886 -0.0497,-0.11344 -0.11584,-0.21897 -0.17376,-0.32845 0.0153,0.031 0.0491,0.12749 0.0459,0.0931 -0.0783,-0.8362 -0.18125,-1.66991 -0.27187,-2.50487 0.81815,-0.98292 1.517,-2.07887 2.45444,-2.94875 0.44428,-0.41225 1.84636,-0.23595 2.27935,-0.22168 0.006,1.9e-4 -0.1184,-0.0206 -0.0168,0.001 -0.5285,-0.13682 -1.07188,-0.22845 -1.61972,-0.21251 -0.24958,-5.3e-4 -0.49917,-5.9e-4 -0.74872,0.004 -0.55556,0.0116 -1.11102,0.0343 -1.66483,0.0813 -0.33782,0.0324 -0.35101,0.0314 -0.69286,0.0735 -0.038,0.005 -0.15199,0.0149 -0.11372,0.0166 0.74792,0.0324 0.0104,-0.0394 -0.10892,-0.008 -0.53299,0 -1.06598,0 -1.59896,0 -0.83763,0 -1.67526,0 -2.5129,0 -0.93978,0 -1.87957,1e-5 -2.81935,1e-5 -0.80398,0 -1.60795,0 -2.41193,-6e-5 -0.86345,-8e-5 -1.7269,-2.4e-4 -2.59035,-6.4e-4 -1.02058,-4e-4 -2.04117,-0.001 -3.06176,9.5e-4 -0.818,0.004 -1.63612,0.0121 -2.45345,0.0483 -0.84917,0.0361 -1.69767,0.10015 -2.54664,0.1193 -0.96283,0.007 -1.92583,0.0206 -2.8876,0.0696 -0.77444,0.0435 -1.5457,0.11964 -2.32065,0.15118 -0.70084,0.0568 -1.39486,0.15788 -2.0923,0.24415 -0.90284,0.13658 -1.79637,0.33192 -2.67051,0.59767 -0.55905,0.17218 -1.11761,0.34638 -1.68246,0.49863 -0.55874,0.126 -1.11729,0.25436 -1.67269,0.39358 -0.4923,0.10649 -0.97911,0.2285 -1.47583,0.31117 -0.53578,0.12271 -1.08997,0.16934 -1.6207,0.31984 -0.41722,0.0764 -0.82091,0.14581 -1.16437,0.19562 -0.10442,0.0128 -0.32014,0.0387 -0.3207,0.0405 -0.0109,0.034 0.14252,0.004 0.10688,0.005 -0.27733,0.0105 -0.55573,-0.007 -0.83312,0.003 -0.45981,0.002 -0.91963,0.007 -1.37945,0.006 -0.0321,3e-5 -0.12649,-0.007 -0.0962,0.004 0.10145,0.0361 0.22022,0.0138 0.31162,0.085 0.90051,0.35321 0.65012,0.32606 1.68153,1.20022 0.26959,0.63326 0.66505,1.2267 0.80877,1.89978 0.10153,0.47549 -0.0696,0.97002 -0.0923,1.45569 -0.002,0.0436 0.0199,-0.0849 0.0302,-0.12725 0.0575,-0.23759 0.13444,-0.46966 0.20021,-0.70502 0.003,-0.15561 -0.003,-3.1e-4 0.11665,-0.39141 0.0798,-0.26173 0.17565,-0.51857 0.25666,-0.78041 0.18837,-0.58566 0.36633,-1.17595 0.49717,-1.77745 0.21027,-0.7962 0.4083,-1.59522 0.57145,-2.40262 0.14708,-0.76066 0.36606,-1.50564 0.51062,-2.26719 0.19764,-0.85242 0.38498,-1.70665 0.55497,-2.56505 0.20988,-0.95882 0.44797,-1.91266 0.60136,-2.88272 0.17063,-1.18157 0.30856,-2.36721 0.47924,-3.54883 0.0927,-0.68916 0.19485,-1.37653 0.31911,-2.0607 0.0941,-0.5737 0.18257,-1.14616 0.34726,-1.70618 0.196,-0.92685 0.38867,-1.8543 0.55909,-2.78626 0.11782,-0.62058 0.29341,-1.23179 0.34266,-1.86408 0.11257,-0.72392 0.16368,-1.45328 0.10749,-2.1853 -0.10273,-1.30836 -0.43451,-2.5487 -1.24276,-3.61328 -0.15154,-0.17723 -0.29452,-0.36214 -0.45462,-0.53167 -1.08806,-1.15215 -2.5427,-1.81956 -4.12935,-1.86204 -0.25235,0.0116 -0.50524,0.0148 -0.75706,0.0348 -0.95083,0.0756 -1.87886,0.3689 -2.75987,0.71745 -0.90207,0.41786 -1.74799,0.92473 -2.57642,1.47338 -0.53837,0.34474 -1.06485,0.70832 -1.61334,1.03635 -0.26225,0.15611 -0.43499,0.25096 -0.62036,0.3409 -0.4093,0.13512 -0.83123,0.22512 -1.26756,0.24339 -0.8354,0.0713 -1.67767,0.0786 -2.51302,0.003 -0.3787,-0.0372 -0.73736,-0.14133 -1.08751,-0.29093 -0.69758,-0.31251 -1.39364,-0.629 -2.03701,-1.04681 -0.97729,-0.584 -1.96402,-1.15143 -2.91565,-1.77733 -0.78017,-0.50008 -1.55955,-1.0002 -2.32022,-1.52984 -0.43251,-0.37784 -0.85402,-0.77433 -1.22935,-1.20897 -0.40681,-0.44294 -0.78441,-0.91822 -1.11993,-1.41731 -0.34209,-0.57846 -0.63757,-1.18194 -0.94564,-1.77895 -0.14797,-0.33105 -0.3049,-0.66366 -0.38291,-1.01812 -0.10761,-0.60379 -0.22705,-1.20746 -0.24855,-1.82226 -0.0449,-0.66996 -0.0462,-1.33936 -0.0388,-2.01102 -3.5e-4,-0.83342 -9e-4,-1.66685 -10e-4,-2.50027 1.8e-4,-0.44263 3.4e-4,-0.88536 0.0141,-1.32782 0.021,-0.5816 0.0558,-1.16293 0.13147,-1.74034 0.0698,-0.67871 0.1001,-1.36355 0.24032,-2.03313 0.082,-0.40686 0.17328,-0.81404 0.31387,-1.20469 0.0267,-0.0743 0.0534,-0.14855 0.0802,-0.22283 -10e-4,-0.002 -0.004,-0.003 -0.003,-0.005 0.01,-0.0288 0.053,-0.10825 0.0335,-0.0849 -0.0239,0.0287 -0.26403,0.46959 0.035,-0.0533 -0.0805,0.0963 -0.0158,0.0209 0.12658,-0.19976 0.01,-0.0153 0.0395,-0.0607 0.0277,-0.0469 -0.0689,0.0803 -0.13053,0.16674 -0.19948,0.24704 -0.0243,0.0282 -0.10532,0.10522 -0.0798,0.0781 0.061,-0.0647 0.12419,-0.12732 0.18628,-0.19098 0.20822,-0.22307 0.12111,-0.17498 0.66003,-0.61257 0.2482,-0.2146 0.49129,-0.43061 0.72721,-0.65919 0.0416,-0.0403 0.17522,-0.13857 0.11846,-0.12709 -0.022,0.004 -0.0368,0.0257 -0.0552,0.0385 0.22265,-0.18006 0.36617,-0.30724 0.73724,-0.53086 0.49568,-0.30481 0.99317,-0.60141 1.51887,-0.85363 0.4147,-0.22693 0.90972,-0.27963 1.35434,-0.42257 0.71041,-0.16752 1.43165,-0.28666 2.14604,-0.43525 0.58246,-0.12578 1.16372,-0.24898 1.76017,-0.28857 0.62611,-0.0719 1.26039,-0.0984 1.89018,-0.0784 0.49332,0.0352 0.97834,0.12404 1.46261,0.22362 0.23507,0.0364 0.46182,0.10342 0.6953,0.14378 0.0186,0.003 -0.0365,-0.0146 -0.0485,-0.0291 -0.005,-0.006 0.0164,1.5e-4 0.0247,2.2e-4 -0.1158,-0.0678 -0.23161,-0.13571 -0.34742,-0.20356 -0.46336,-0.38045 -1.21155,-1.14302 -1.19603,-1.77649 4.3e-4,-0.0176 0.0251,0.13048 0.0342,0.0403 0.021,-0.29859 -4.2e-4,-0.37068 0.0826,-0.61183 0.004,-0.0109 0.0122,0.0351 0.0208,0.0275 0.0707,-0.0628 0.09,-0.17338 0.17943,-0.21981 0.0441,-0.0266 0.0865,-0.0564 0.13234,-0.0799 0.018,-0.009 -0.0223,0.0343 -0.0376,0.0476 -0.062,0.0537 -0.12813,0.10257 -0.19326,0.15249 -0.25239,0.19343 -0.39326,0.28398 -0.69164,0.49192 -0.44556,0.34468 -0.78507,0.58517 -1.18515,1.01731 -0.83653,0.90355 -1.41935,1.9779 -1.65883,3.19296 -0.0848,0.43016 -0.0837,0.87287 -0.12555,1.3093 0.0671,0.92227 0.0413,1.14324 0.26145,2.02303 0.0843,0.33667 0.15291,0.68346 0.30456,0.99563 0.2847,0.58604 0.34608,1.6372 0.9961,1.68175 7.37251,0.5053 6.66536,0.65404 7.32077,-3.23826 -0.039,-0.2773 -0.0629,-0.55716 -0.11701,-0.83192 -0.20082,-1.01994 -0.66092,-2.16064 -1.20071,-3.04276 -0.21261,-0.34743 -0.46426,-0.6694 -0.69638,-1.0041 -1.00473,-0.92653 -1.58688,-1.71902 -3.11125,-1.89735 -0.85497,-0.10001 -1.76235,-0.0349 -2.56859,0.26665 -1.13165,0.42328 -2.00317,1.35464 -2.54089,2.39099 -0.19448,0.37484 -0.3162,0.78315 -0.47431,1.17473 -0.0791,0.37767 -0.17756,0.7518 -0.2374,1.13301 -0.21075,1.34265 -0.0745,2.71908 -0.036,4.06781 0.3911,5.86654 8.68764,5.31344 8.29654,-0.5531 z" />
      </g>
      <g
         id="g128"
         transform="translate(446.09719,138.05394)">
        <path
           style="fill:none;fill-opacity:1;stroke:#b9bdb1;stroke-width:1.9;stroke-linecap:round;stroke-dasharray:none;stroke-opacity:1"
           d="m 313.79176,235.34382 c -1.88181,9.64428 -3.76362,19.28855 -5.64543,28.93282"
           id="path126"
           transform="translate(0.23522621,-0.58806552)" />
        <path
           style="fill:none;fill-opacity:1;stroke:#b9bdb1;stroke-width:1.9;stroke-linecap:round;stroke-dasharray:none;stroke-opacity:1"
           d="m 311.79234,238.28415 c -1.64658,8.54655 -3.29317,17.0931 -4.93975,25.63966"
           id="path127" />
        <path
           style="fill:none;fill-opacity:1;stroke:#b9bdb1;stroke-width:1.9;stroke-linecap:round;stroke-dasharray:none;stroke-opacity:1"
           d="m 311.79234,238.28415 c -1.64658,8.54655 -3.29317,17.0931 -4.93975,25.63966"
           id="path127-0"
           transform="translate(-1.7843997,1.48741)" />
        <path
           style="fill:none;fill-opacity:1;stroke:#b9bdb1;stroke-width:1.9;stroke-linecap:round;stroke-dasharray:none;stroke-opacity:1"
           d="m 311.79234,238.28415 c -1.64658,8.54655 -3.29317,17.0931 -4.93975,25.63966"
           id="path127-6"
           transform="matrix(0.704263,0,0,0.86045436,88.046536,38.412571)" />
        <path
           style="fill:none;fill-opacity:1;stroke:#b9bdb1;stroke-width:1.9;stroke-linecap:round;stroke-dasharray:none;stroke-opacity:1"
           d="m 311.79234,238.28415 c -1.64658,8.54655 -3.29317,17.0931 -4.93975,25.63966"
           id="path127-3"
           transform="matrix(1.0273047,0,0,0.84012294,-12.407059,43.575235)" />
        <path
           style="fill:none;fill-opacity:1;stroke:#b9bdb1;stroke-width:1.9;stroke-linecap:round;stroke-dasharray:none;stroke-opacity:1"
           d="m 311.79234,238.28415 c -1.64658,8.54655 -3.29317,17.0931 -4.93975,25.63966"
           id="path127-69"
           transform="matrix(1.035473,0,0,0.79582509,-15.520604,54.991191)" />
        <path
           style="fill:none;fill-opacity:1;stroke:#b9bdb1;stroke-width:1.9;stroke-linecap:round;stroke-dasharray:none;stroke-opacity:1"
           d="m 311.79234,238.28415 c -1.64658,8.54655 -3.29317,17.0931 -4.93975,25.63966"
           id="path127-62"
           transform="matrix(1.0732956,0,0,0.61045149,-28.691022,104.24376)" />
      </g>
      <g
         id="g130"
         transform="translate(446.09719,138.05394)">
        <path
           style="fill:none;fill-opacity:1;stroke:#b9bdb1;stroke-width:3.6;stroke-linecap:round;stroke-dasharray:none;stroke-opacity:1"
           d="m 482.68734,-164.27611 c 0.19602,2.62669 0.39204,5.25339 0.78409,7.31163 0.39205,2.05824 0.9801,3.54798 1.66619,5.17498 0.68608,1.627 1.47015,3.39116 2.60709,4.78293 1.13695,1.39176 2.62668,2.41105 4.21447,3.39117 1.5878,0.98012 3.27355,1.92101 4.88095,2.64629 1.60739,0.72529 3.13633,1.23493 4.66531,1.72499 1.52899,0.49006 3.05793,0.96051 4.27328,1.29375 1.21534,0.33323 2.11702,0.52925 3.01872,0.72527"
           id="path129"
           transform="translate(-202.06247,379.50809)" />
        <path
           style="fill:none;fill-opacity:1;stroke:#b9bdb1;stroke-width:2.6;stroke-linecap:round;stroke-dasharray:none;stroke-opacity:1"
           d="m 283.68281,205.35248 c -0.50966,1.8034 -1.01931,3.6068 -1.33295,5.76307 -0.31364,2.15626 -0.43125,4.66529 -0.31363,6.66473 0.11761,1.99944 0.47044,3.48917 0.9409,4.95935 0.47046,1.47018 1.05851,2.92071 1.725,4.21447 0.66648,1.29375 1.41135,2.43066 2.25425,3.41077 0.8429,0.98012 1.78379,1.8034 2.82272,2.6267 1.03892,0.8233 2.17583,1.64657 3.5676,2.46987 1.39177,0.8233 3.03832,1.64658 4.25367,2.21504 1.21534,0.56847 1.99941,0.8821 2.66589,1.13693 0.66648,0.25483 1.21533,0.45085 1.84261,0.64687 0.62727,0.19602 1.33294,0.39204 1.94061,0.49005 0.60767,0.098 1.11732,0.098 1.58777,0.098 0.47046,0 0.9017,0 1.31335,0 0.41165,0 0.80369,0 1.19573,0"
           id="path128"
           transform="translate(0,-0.58806552)" />
      </g>
      <g
         id="g134"
         transform="translate(446.09719,138.05394)">
        <path
           style="fill:none;fill-opacity:1;stroke:#b9bdb1;stroke-width:2.3;stroke-linecap:round;stroke-dasharray:none;stroke-opacity:1"
           d="m 353.82559,234.94119 c 0.6376,0.47127 1.2752,0.94254 2.16923,1.41381 0.89404,0.47127 2.04447,0.94253 3.19493,1.33757 1.15046,0.39504 2.30088,0.71383 3.02858,0.89402 0.7277,0.18019 1.03263,0.22178 1.46926,0.26336 0.43662,0.0416 1.0049,0.0832 1.51083,0.11782 0.50592,0.0346 0.94946,0.0624 1.37222,0.0624 0.42276,0 0.82471,-0.0277 1.2544,-0.0416 0.42969,-0.0139 0.88709,-0.0139 1.32371,-0.0208 0.43662,-0.007 0.85244,-0.0208 1.1851,-0.0416 0.33266,-0.0208 0.58214,-0.0485 0.99798,-0.0693 0.41584,-0.0208 0.99798,-0.0347 1.58013,-0.0485"
           id="path130"
           transform="translate(-0.41582512,-0.08316502)" />
        <path
           style="fill:none;fill-opacity:1;stroke:#b9bdb1;stroke-width:2.3;stroke-linecap:round;stroke-dasharray:none;stroke-opacity:1"
           d="m 354.86515,238.0183 c 1.60786,0.72076 3.21572,1.44153 4.76815,1.92666 1.55243,0.48513 3.04937,0.73462 4.53249,0.87323 1.48313,0.13861 2.95234,0.16635 4.42159,0.19408"
           id="path131" />
        <path
           style="fill:none;fill-opacity:1;stroke:#b9bdb1;stroke-width:2.3;stroke-linecap:round;stroke-dasharray:none;stroke-opacity:1"
           d="m 356.19579,240.76274 c 1.35837,0.58216 2.71673,1.16431 3.96421,1.51084 1.24749,0.34652 2.38406,0.4574 3.16027,0.56829 0.77621,0.11089 1.19203,0.22177 1.60785,0.33266"
           id="path132" />
        <path
           style="fill:none;fill-opacity:1;stroke:#b9bdb1;stroke-width:2.3;stroke-linecap:round;stroke-dasharray:none;stroke-opacity:1"
           d="m 356.94428,242.7587 c 1.19203,0.44355 2.38406,0.88709 3.5761,1.33064"
           id="path133" />
      </g>
      <path
         style="fill:#ffffff;fill-opacity:0;stroke:#000000;stroke-width:3.9;stroke-linecap:round;stroke-dasharray:none;stroke-opacity:1"
         d="m 352.3702,212.90246 c -1.71874,-0.16633 -3.43748,-0.33266 -5.1008,-0.59602 -1.66332,-0.26336 -3.27114,-0.62374 -5.04535,-1.21976 -1.77421,-0.59603 -3.71468,-1.42766 -5.46116,-2.2316 -1.74649,-0.80393 -3.29887,-1.58012 -5.07307,-2.56425 -1.77421,-0.98413 -3.77013,-2.17614 -6.34828,-3.54838 -2.57815,-1.37224 -5.73836,-2.92462 -8.20561,-4.04735 -2.46724,-1.12274 -4.24139,-1.81577 -6.40371,-2.46723 -2.16231,-0.65147 -4.71266,-1.26133 -7.16605,-1.51083 -2.45339,-0.24949 -4.80968,-0.13861 -7.26308,0.52672 -2.45339,0.66534 -5.00374,1.88507 -6.99971,3.06325 -1.99597,1.17818 -3.43747,2.31475 -4.90674,3.93649 -1.46926,1.62174 -2.9662,3.72854 -4.01963,6.07105 -1.05343,2.34251 -1.66329,4.92057 -1.78804,7.63733 -0.12474,2.71675 0.23563,5.57202 0.83165,8.15016 0.59603,2.57814 1.42766,4.87899 2.60585,6.90269 1.17819,2.0237 2.70285,3.77013 4.19983,5.18395 1.49699,1.41381 2.96621,2.49494 5.08695,3.57609 2.12073,1.08116 4.89284,2.16228 7.37395,2.98008 2.48111,0.81779 4.67108,1.37222 6.8611,1.92665"
         id="path118"
         transform="translate(446.09719,138.05394)" />
      <path
         style="fill:#ffffff;fill-opacity:0;stroke:#000000;stroke-width:3.9;stroke-linecap:round;stroke-dasharray:none;stroke-opacity:1"
         d="m 297.56445,265.04693 c 2.91078,-6.59776 5.8215,-13.19539 8.57983,-18.78137 2.75833,-5.58598 5.36417,-10.16006 6.81957,-12.6273 1.45539,-2.46723 1.76032,-2.8276 2.06526,-3.18798"
         id="path119"
         transform="translate(446.45003,137.46587)" />
      <path
         style="fill:#ffffff;fill-opacity:0;stroke:#000000;stroke-width:2.9;stroke-linecap:round;stroke-dasharray:none;stroke-opacity:1"
         d="m 297.73078,265.13009 c 4.15825,-0.0554 8.31651,-0.11089 12.07149,-0.35114 3.75498,-0.24026 7.10656,-0.66531 9.88993,-1.04446 2.78337,-0.37915 4.99838,-0.71238 8.02696,-1.14364 3.02857,-0.43125 6.87052,-0.9605 10.12451,-1.29374 3.25399,-0.33324 5.91983,-0.47045 8.47794,-0.52926 2.55811,-0.0588 5.00833,-0.0392 7.54684,0.0882 2.53851,0.12741 5.16515,0.36263 7.79184,0.59786"
         id="path120"
         transform="translate(446.09719,138.05394)" />
      <path
         style="fill:#ffffff;fill-opacity:0;stroke:#000000;stroke-width:3.7;stroke-linecap:round;stroke-dasharray:none;stroke-opacity:1"
         d="m 349.66376,230.40407 c 4.15566,10.50677 8.31133,21.01354 12.46699,31.52031"
         id="path121"
         transform="translate(445.74435,137.23065)" />
      <path
         style="fill:#ffffff;fill-opacity:0;stroke:#000000;stroke-width:3.9;stroke-linecap:round;stroke-dasharray:none;stroke-opacity:1"
         d="m 356.3677,245.63497 c 0.70568,0.098 1.41136,0.19602 2.12685,0.19602 0.71549,0 1.44075,-0.098 2.11703,-0.21563 0.67629,-0.11761 1.30354,-0.25482 2.09744,-0.49986 0.7939,-0.24503 1.75439,-0.59786 2.6855,-0.9605 0.93111,-0.36265 1.83279,-0.73508 2.75411,-1.18593 0.92131,-0.45086 1.86219,-0.98011 2.89132,-1.63679 1.02913,-0.65668 2.14643,-1.44075 3.14615,-2.30326 0.99972,-0.8625 1.8818,-1.80339 2.6855,-2.88152 0.80369,-1.07813 1.52896,-2.29345 2.21504,-3.59701 0.68609,-1.30355 1.33294,-2.69528 1.8132,-4.21446 0.48026,-1.51919 0.79389,-3.16574 0.9507,-4.52811 0.15682,-1.36236 0.15682,-2.44046 0.15682,-3.44998 0,-1.00952 0,-1.95041 -0.25483,-3.25397 -0.25484,-1.30356 -0.76448,-2.96971 -1.54858,-4.58691 -0.7841,-1.61719 -1.84259,-3.18534 -3.21476,-4.81233 -1.37217,-1.627 -3.05793,-3.31276 -4.82215,-4.65552 -1.76421,-1.34276 -3.60678,-2.34245 -5.38079,-3.12654 -1.77402,-0.7841 -3.47937,-1.35255 -5.38081,-1.65638 -1.90143,-0.30383 -3.99882,-0.34304 -6.00806,-0.23522 -2.00925,0.10781 -3.93022,0.36263 -5.86105,0.8723 -1.93084,0.50966 -3.87142,1.27413 -5.77285,2.20525 -1.90143,0.93111 -3.7636,2.02881 -5.31218,3.02853 -1.54859,0.99972 -2.7835,1.90141 -4.01844,2.80311"
         id="path122"
         transform="translate(446.09719,138.05394)" />
      <path
         style="fill:#ffffff;fill-opacity:0;stroke:#000000;stroke-width:2.9;stroke-linecap:round;stroke-dasharray:none;stroke-opacity:1"
         d="m 335.23821,207.82939 c 1.74646,-1.4138 3.49293,-2.82761 5.25328,-4.11668 1.76034,-1.28906 3.53449,-2.45335 5.30868,-3.61766"
         id="path123"
         transform="translate(446.09719,138.05394)" />
      <path
         style="fill:#ffffff;fill-opacity:0;stroke:#000000;stroke-width:4.4;stroke-linecap:round;stroke-dasharray:none;stroke-opacity:1"
         d="m 350.04158,230.11762 c 2.07913,5.26712 4.15826,10.53424 6.23738,15.80135"
         id="path124"
         transform="translate(446.09719,138.05394)" />
    </g>
  </g>
</svg>
